<svg xmlns="http://www.w3.org/2000/svg" viewBox="0 0 48 48"><defs><linearGradient gradientTransform="matrix(.63636 0 0 .62142 -252.21 -311.09)" gradientUnits="userSpaceOnUse" y2="507.8" x2="0" y1="542.8" id="a"><stop stop-color="#252525"/><stop offset="1" stop-color="#4c4c4c"/></linearGradient></defs><g transform="translate(10.649 -1.748) scale(1.71427)"><rect width="28" height="21.13" x="-6.211" y="4.461" fill="url(#a)" rx=".994"/><g fill="#fff" stroke="#fff" stroke-linejoin="round" stroke-linecap="round" stroke-width=".175"><path d="M5.085 13.1a.166.166 0 0 0-.118-.044H.044a.166.166 0 0 0-.118.044.147.147 0 0 0-.046.112v.312c0 .046.015.083.046.112.031.029.07.044.118.044h4.923a.166.166 0 0 0 .118-.044.147.147 0 0 0 .046-.112v-.312a.146.146 0 0 0-.046-.112zM-2.792 8.489a.165.165 0 0 0-.118-.049.165.165 0 0 0-.118.049l-.256.244a.152.152 0 0 0-.051.112c0 .042.017.08.051.112l2.02 1.917-2.02 1.918a.152.152 0 0 0-.051.112c0 .042.017.08.051.112l.256.244a.163.163 0 0 0 .118.049.165.165 0 0 0 .118-.049l2.39-2.274a.152.152 0 0 0 .051-.112.15.15 0 0 0-.051-.112l-2.39-2.274z"/></g></g></svg>