<svg xmlns="http://www.w3.org/2000/svg" baseProfile="full" width="1024" height="768"><path fill="#FFF" d="M0 0h1024v768H0z"/><path fill="#0096FF" d="M256.97 94.077h510.06l-45.538 520.321-206.82 59.525-211.045-59.51L256.97 94.077z"/><path fill="#FFF" fill-opacity=".302" d="M513.4 136.908h208.501l-40.604 445.329-167.474 46.943-.423-492.272z"/><g fill="#3D3D3D"><path d="M697.24 486.918l22.678-57.346h65.478l-31.077-86.992 38.866-98.281L904.5 539.853h-82.091l-19.024-52.935H697.24zM627.205 523.702L746.37 228.147h-79.003L585.85 419.141l-57.967-190.993h-60.724l-62.24 190.993-43.893-87.032-39.722 122.376 40.329 69.217h77.749l56.243-171.281 53.625 171.281h77.955zM194.491 422.243h48.662c14.74 0 27.866-1.645 39.378-4.935l12.584-38.771 35.172-108.358a86.576 86.576 0 0 0-9.179-12.048c-18.058-19.989-44.48-29.983-79.265-29.983H119.5v295.554h74.991V422.243zm64.411-126.1c7.054 7.099 10.581 16.599 10.581 28.501 0 11.993-3.102 21.504-9.305 28.535-6.801 7.812-19.323 11.717-37.565 11.717h-28.122v-79.402h28.329c17.001 0 29.029 3.549 36.082 10.649z"/></g></svg>